<svg xmlns="http://www.w3.org/2000/svg" viewBox="0 0 1200 500" role="img" aria-label="Concept school in Ramechhap hills at sunrise">
  <defs>
    <linearGradient id="sky" x1="0" y1="0" x2="0" y2="1">
      <stop offset="0%" stop-color="#fde7c3"/>
      <stop offset="55%" stop-color="#f8f1e8"/>
      <stop offset="100%" stop-color="#ffffff"/>
    </linearGradient>
    <linearGradient id="hill1" x1="0" y1="0" x2="1" y2="1">
      <stop offset="0%" stop-color="#a7c7b5"/>
      <stop offset="100%" stop-color="#7fb39a"/>
    </linearGradient>
    <linearGradient id="hill2" x1="0" y1="0" x2="1" y2="1">
      <stop offset="0%" stop-color="#8fb8a3"/>
      <stop offset="100%" stop-color="#6a9a83"/>
    </linearGradient>
    <linearGradient id="roof" x1="0" y1="0" x2="1" y2="1">
      <stop offset="0%" stop-color="#c98d6b"/>
      <stop offset="100%" stop-color="#b17454"/>
    </linearGradient>
  </defs>

  <rect width="1200" height="500" fill="url(#sky)"/>

  <circle cx="980" cy="90" r="50" fill="#f7c47d" opacity="0.8"/>
  <circle cx="980" cy="90" r="80" fill="#f7c47d" opacity="0.2"/>

  <path d="M0 330 Q220 260 420 300 T840 310 T1200 260 L1200 500 L0 500 Z" fill="url(#hill1)"/>
  <path d="M0 380 Q260 330 520 360 T1100 360 L1200 380 L1200 500 L0 500 Z" fill="url(#hill2)"/>

  <rect x="420" y="250" width="360" height="170" rx="8" fill="#f3efe7" stroke="#d9d0c4" stroke-width="3"/>
  <rect x="460" y="290" width="90" height="70" rx="6" fill="#cdd9d6"/>
  <rect x="610" y="290" width="120" height="110" rx="6" fill="#d8b89a"/>
  <rect x="720" y="290" width="90" height="70" rx="6" fill="#cdd9d6"/>
  <path d="M400 260 L600 190 L800 260 Z" fill="url(#roof)" stroke="#a96a4b" stroke-width="3"/>
  <rect x="560" y="215" width="18" height="35" fill="#b8b0a6"/>

  <path d="M80 420 Q140 390 200 415 T320 420" fill="none" stroke="#6b8f7a" stroke-width="3" opacity="0.5"/>
  <path d="M900 415 Q960 385 1040 410 T1180 415" fill="none" stroke="#6b8f7a" stroke-width="3" opacity="0.5"/>

  <text x="60" y="70" font-family="Georgia, 'Times New Roman', Times, serif" font-size="24" fill="#6b6b6b">
    Ramechhap, Nepal
  </text>
</svg>
